<svg width="170" height="147" viewBox="0 0 170 147" fill="none" xmlns="http://www.w3.org/2000/svg">
<g clip-path="url(#clip0_18_3)">
<path d="M130.621 101.818C130.265 101.817 129.923 101.681 129.663 101.438C129.403 101.194 129.245 100.861 129.222 100.505L129.014 97.3228C128.989 96.9511 129.114 96.585 129.359 96.305C129.605 96.0249 129.952 95.8539 130.323 95.8296L155.255 94.1968C155.648 94.1708 156.042 94.2224 156.416 94.3489C156.789 94.4753 157.133 94.6741 157.43 94.9338C157.726 95.1935 157.968 95.5091 158.143 95.8625C158.317 96.2158 158.42 96.6001 158.446 96.9933C158.472 97.3865 158.42 97.7809 158.293 98.154C158.166 98.5271 157.967 98.8716 157.707 99.1677C157.447 99.4638 157.131 99.7058 156.778 99.8799C156.424 100.054 156.04 100.157 155.647 100.182L130.715 101.815C130.684 101.817 130.653 101.818 130.621 101.818Z" fill="#7A86FF"/>
<path d="M135.538 102.228C135.174 102.227 134.826 102.086 134.564 101.834C134.303 101.582 134.149 101.239 134.135 100.876L133.957 96.1229C133.95 95.9386 133.98 95.7547 134.044 95.5818C134.108 95.4089 134.206 95.2503 134.331 95.1151C134.456 94.9799 134.607 94.8708 134.775 94.7939C134.943 94.717 135.124 94.6739 135.308 94.667L155.81 93.9008C156.182 93.8869 156.545 94.0214 156.818 94.2748C157.091 94.5282 157.252 94.8796 157.266 95.2518L157.443 100.005C157.45 100.189 157.421 100.373 157.357 100.546C157.293 100.719 157.195 100.877 157.069 101.013C156.944 101.148 156.793 101.257 156.625 101.334C156.458 101.411 156.277 101.454 156.092 101.461L135.591 102.227C135.573 102.228 135.555 102.228 135.538 102.228Z" fill="#2F2E41"/>
<path d="M159.562 146.042H156.373C156.001 146.042 155.644 145.894 155.381 145.63C155.117 145.367 154.969 145.01 154.969 144.638V118.058C154.969 117.686 155.117 117.329 155.381 117.066C155.644 116.803 156.001 116.654 156.373 116.654H159.562C159.935 116.654 160.292 116.803 160.555 117.066C160.818 117.329 160.966 117.686 160.967 118.058V144.638C160.966 145.01 160.818 145.367 160.555 145.63C160.292 145.894 159.935 146.042 159.562 146.042Z" fill="#2F2E41"/>
<path d="M151.944 146.042H148.755C148.383 146.042 148.026 145.894 147.763 145.63C147.499 145.367 147.351 145.01 147.351 144.638V118.058C147.351 117.686 147.499 117.329 147.763 117.066C148.026 116.803 148.383 116.654 148.755 116.654H151.944C152.317 116.654 152.674 116.803 152.937 117.066C153.2 117.329 153.348 117.686 153.349 118.058V144.638C153.348 145.01 153.2 145.367 152.937 145.63C152.674 145.894 152.317 146.042 151.944 146.042Z" fill="#2F2E41"/>
<path d="M154.719 88.9157C160.804 88.9157 165.738 83.9821 165.738 77.8963C165.738 71.8104 160.804 66.8769 154.719 66.8769C148.633 66.8769 143.699 71.8104 143.699 77.8963C143.699 83.9821 148.633 88.9157 154.719 88.9157Z" fill="#7A86FF"/>
<path d="M148.754 81.6587C148.4 81.5422 148.074 81.3512 147.8 81.0985C147.618 80.918 147.478 80.7 147.389 80.4597C147.3 80.2194 147.265 79.9626 147.286 79.7072C147.297 79.5253 147.351 79.3485 147.442 79.1907C147.533 79.0329 147.66 78.8982 147.812 78.7974C148.206 78.5446 148.733 78.5438 149.269 78.7803L149.249 74.4785L149.681 74.4764L149.705 79.5337L149.372 79.3242C148.986 79.0818 148.434 78.9111 148.045 79.1611C147.949 79.2271 147.869 79.3145 147.812 79.4164C147.755 79.5183 147.722 79.632 147.716 79.7486C147.702 79.9388 147.728 80.1299 147.794 80.3089C147.86 80.4879 147.964 80.6506 148.098 80.7859C148.575 81.2417 149.271 81.3842 150.065 81.5116L149.997 81.9382C149.575 81.8824 149.159 81.7888 148.754 81.6587Z" fill="#2F2E41"/>
<path d="M144.795 74.2617L144.738 74.6901L147.045 74.9948L147.102 74.5665L144.795 74.2617Z" fill="#2F2E41"/>
<path d="M152.078 75.2228L152.021 75.6511L154.328 75.9558L154.385 75.5275L152.078 75.2228Z" fill="#2F2E41"/>
<path d="M161.904 125.19H145.338C144.928 125.189 144.529 125.052 144.206 124.799C143.883 124.546 143.654 124.192 143.555 123.794C143.506 123.576 143.498 123.35 143.531 123.128C143.531 123.128 146.767 104.957 148.367 96.23C148.601 94.9579 149.273 93.8079 150.266 92.9801C151.26 92.1523 152.513 91.6991 153.806 91.6994C156.975 91.6994 160.015 92.9585 162.256 95.1996C164.497 97.4408 165.756 100.48 165.756 103.65V121.337C165.756 121.843 165.657 122.344 165.463 122.812C165.27 123.279 164.986 123.704 164.628 124.061C164.27 124.419 163.846 124.703 163.378 124.897C162.911 125.09 162.41 125.19 161.904 125.19Z" fill="#2F2E41"/>
<path d="M158.71 122.789C158.589 123.031 158.4 123.234 158.166 123.371C157.933 123.509 157.664 123.577 157.394 123.566L154.207 123.431C154.023 123.424 153.842 123.38 153.675 123.302C153.508 123.224 153.357 123.114 153.232 122.979C153.108 122.843 153.011 122.684 152.947 122.511C152.884 122.337 152.856 122.153 152.863 121.969L153.915 97.0064C153.931 96.613 154.025 96.2266 154.191 95.8694C154.357 95.5123 154.592 95.1913 154.882 94.9247C155.172 94.6582 155.511 94.4514 155.881 94.3162C156.251 94.1809 156.644 94.1198 157.037 94.1364C157.431 94.153 157.817 94.2469 158.174 94.4128C158.531 94.5787 158.852 94.8133 159.119 95.1032C159.385 95.3932 159.592 95.7328 159.728 96.1026C159.863 96.4725 159.924 96.8654 159.907 97.2589L158.856 122.221C158.848 122.419 158.798 122.612 158.71 122.789Z" fill="#7A86FF"/>
<path d="M160.341 116.17C160.22 116.412 160.031 116.615 159.797 116.753C159.564 116.891 159.295 116.958 159.025 116.947L153.582 116.718C153.21 116.701 152.86 116.538 152.608 116.264C152.356 115.99 152.223 115.627 152.238 115.255L153.102 94.7573C153.109 94.573 153.153 94.3921 153.231 94.2248C153.309 94.0575 153.419 93.9072 153.554 93.7824C153.69 93.6576 153.849 93.5607 154.023 93.4974C154.196 93.4341 154.38 93.4055 154.564 93.4132L160.006 93.6425C160.19 93.6502 160.371 93.6942 160.539 93.7719C160.706 93.8496 160.856 93.9594 160.981 94.0952C161.106 94.231 161.203 94.3901 161.266 94.5633C161.329 94.7365 161.358 94.9205 161.35 95.1048L160.487 115.603C160.479 115.8 160.429 115.993 160.341 116.17Z" fill="#2F2E41"/>
<path d="M154.106 70.7387C151.729 71.676 148.138 72.6724 146.571 69.8896C146.265 69.3208 146.084 68.6934 146.039 68.0491C145.995 67.4049 146.088 66.7585 146.313 66.1531C146.786 64.8402 147.793 63.7586 148.94 62.9943C151.09 61.5626 153.809 61.1728 156.312 61.7262C157.57 62.0002 158.765 62.5134 159.83 63.2379C161.04 64.0679 161.893 65.1883 162.75 66.3609C163.626 67.5597 164.617 68.7687 166.057 69.2939C167.234 69.7233 168.71 69.5041 169.543 68.5049C169.737 68.2716 169.886 68.0041 169.983 67.716C170.107 67.3488 169.527 67.1912 169.403 67.5561C168.965 68.842 167.354 69.1302 166.217 68.7139C164.716 68.1645 163.767 66.7369 162.867 65.5044C162.006 64.3262 161.054 63.2889 159.811 62.5074C158.694 61.81 157.456 61.3268 156.161 61.0825C153.556 60.5868 150.749 61.0261 148.541 62.5399C147.324 63.3369 146.37 64.4765 145.801 65.815C145.295 67.0814 145.308 68.496 145.837 69.753C146.102 70.3794 146.517 70.9315 147.044 71.3614C147.572 71.7912 148.196 72.0858 148.863 72.2195C150.319 72.5145 151.832 72.1751 153.214 71.7072C153.568 71.5873 153.918 71.4557 154.266 71.3186C154.622 71.1782 154.467 70.5964 154.106 70.7387Z" fill="#2F2E41"/>
<path d="M9.64773 0.237671H85.0891C87.647 0.240551 90.0993 1.25793 91.908 3.06661C93.7166 4.87529 94.734 7.32757 94.7369 9.88542V51.1578C94.734 53.7157 93.7166 56.1679 91.908 57.9766C90.0993 59.7853 87.647 60.8027 85.0891 60.8055H9.64773C7.08987 60.8027 4.63761 59.7853 2.82893 57.9766C1.02025 56.1679 0.00287429 53.7157 0 51.1578V9.88542C0.00287376 7.32757 1.02025 4.87529 2.82893 3.06661C4.6376 1.25793 7.08987 0.240551 9.64773 0.237671Z" fill="#F2F2F2"/>
<path d="M9.64763 3.01505H85.0891C86.9106 3.01709 88.657 3.74158 89.945 5.02958C91.233 6.31759 91.9575 8.06391 91.9595 9.88542V51.1578C91.9575 52.9793 91.233 54.7256 89.945 56.0136C88.657 57.3016 86.9106 58.0261 85.0891 58.0281H9.64763C7.82614 58.0261 6.07984 57.3016 4.79186 56.0136C3.50387 54.7256 2.77939 52.9793 2.77734 51.1578V9.88542C2.77938 8.06392 3.50387 6.31761 4.79185 5.02961C6.07984 3.74161 7.82614 3.01711 9.64763 3.01505Z" fill="white"/>
<path d="M10.3839 75.5824C10.1562 75.5818 9.93094 75.5362 9.72093 75.4483C9.40748 75.3224 9.13936 75.1047 8.95167 74.8238C8.76399 74.5429 8.66548 74.2119 8.66904 73.8741V59.6065L27.6904 58.9666L11.5779 75.079C11.4221 75.2378 11.2364 75.364 11.0314 75.4505C10.8264 75.5369 10.6063 75.5817 10.3839 75.5824Z" fill="#F2F2F2"/>
<path d="M75.6406 13.281H18.9125C16.6412 13.281 14.8 15.1222 14.8 17.3934V17.3934C14.8 19.6647 16.6412 21.5059 18.9125 21.5059H75.6406C77.9119 21.5059 79.7531 19.6647 79.7531 17.3934C79.7531 15.1222 77.9119 13.281 75.6406 13.281Z" fill="#F2F2F2"/>
<path d="M75.7324 26.4091H19.0043C16.733 26.4091 14.8918 28.2504 14.8918 30.5216V30.5216C14.8918 32.7928 16.733 34.634 19.0043 34.634H75.7324C78.0037 34.634 79.8449 32.7928 79.8449 30.5216C79.8449 28.2504 78.0037 26.4091 75.7324 26.4091Z" fill="#F2F2F2"/>
<path d="M75.8245 39.5373H19.0963C16.8251 39.5373 14.9839 41.3785 14.9839 43.6498V43.6498C14.9839 45.921 16.8251 47.7622 19.0963 47.7622H75.8245C78.0957 47.7622 79.9369 45.921 79.9369 43.6498C79.9369 41.3785 78.0957 39.5373 75.8245 39.5373Z" fill="#F2F2F2"/>
<path d="M128.775 21.2873H53.334C50.7762 21.2901 48.3239 22.3075 46.5152 24.1162C44.7065 25.9249 43.6892 28.3772 43.6863 30.935V72.2074C43.6892 74.7652 44.7065 77.2175 46.5152 79.0262C48.3239 80.8349 50.7762 81.8522 53.334 81.8551H128.775C131.333 81.8522 133.786 80.8349 135.594 79.0262C137.403 77.2175 138.42 74.7652 138.423 72.2074V30.935C138.42 28.3772 137.403 25.9249 135.594 24.1162C133.786 22.3075 131.333 21.2901 128.775 21.2873Z" fill="#E6E6E6"/>
<path d="M128.776 24.0646H53.334C51.5125 24.0667 49.7662 24.7912 48.4782 26.0792C47.1902 27.3672 46.4657 29.1135 46.4636 30.935V72.2074C46.4657 74.0289 47.1902 75.7752 48.4782 77.0632C49.7662 78.3512 51.5125 79.0757 53.334 79.0777H128.776C130.597 79.0757 132.343 78.3512 133.631 77.0632C134.919 75.7752 135.644 74.0289 135.646 72.2074V30.935C135.644 29.1135 134.919 27.3672 133.631 26.0792C132.343 24.7912 130.597 24.0667 128.776 24.0646Z" fill="white"/>
<path d="M123.036 96.1286L106.924 80.0161L125.945 80.6561V94.9237C125.949 95.2615 125.85 95.5925 125.663 95.8734C125.475 96.1543 125.207 96.3719 124.893 96.4979C124.683 96.5858 124.458 96.6314 124.23 96.632C124.008 96.6313 123.788 96.5864 123.583 96.5C123.378 96.4136 123.192 96.2873 123.036 96.1286Z" fill="#E6E6E6"/>
<path d="M74.4156 56.7835C77.2943 56.7835 79.6279 54.4499 79.6279 51.5712C79.6279 48.6925 77.2943 46.3589 74.4156 46.3589C71.537 46.3589 69.2034 48.6925 69.2034 51.5712C69.2034 54.4499 71.537 56.7835 74.4156 56.7835Z" fill="#7A86FF"/>
<path d="M91.0548 56.7835C93.9335 56.7835 96.2671 54.4499 96.2671 51.5712C96.2671 48.6925 93.9335 46.3589 91.0548 46.3589C88.1761 46.3589 85.8425 48.6925 85.8425 51.5712C85.8425 54.4499 88.1761 56.7835 91.0548 56.7835Z" fill="#7A86FF"/>
<path d="M107.694 56.7835C110.573 56.7835 112.906 54.4499 112.906 51.5712C112.906 48.6925 110.573 46.3589 107.694 46.3589C104.815 46.3589 102.482 48.6925 102.482 51.5712C102.482 54.4499 104.815 56.7835 107.694 56.7835Z" fill="#7A86FF"/>
</g>
<defs>
<clipPath id="clip0_18_3">
<rect width="170" height="145.805" fill="white" transform="translate(0 0.237671)"/>
</clipPath>
</defs>
</svg>
