<svg width="174" height="150" viewBox="0 0 174 150" fill="none" xmlns="http://www.w3.org/2000/svg">
<g clip-path="url(#clip0_8_166)">
<path d="M0 147.726C0 147.944 0.17494 148.119 0.392785 148.119H172.777C172.995 148.119 173.17 147.944 173.17 147.726C173.17 147.508 172.995 147.333 172.777 147.333H0.392785C0.174938 147.333 0 147.508 0 147.726Z" fill="#3F3C57"/>
<path d="M56.2441 15.8602L58.1188 24.4145L54.1314 36.3212L47.7073 23.5284L48.5986 16.1067L56.2441 15.8602Z" fill="#FDB4B4"/>
<path d="M58.4671 23.9714H47.375V37.3735H58.4671V23.9714Z" fill="#7A86FF"/>
<path d="M53.9059 20.1691C58.0895 20.1691 61.481 16.7777 61.481 12.5941C61.481 8.41046 58.0895 5.01898 53.9059 5.01898C49.7223 5.01898 46.3308 8.41046 46.3308 12.5941C46.3308 16.7777 49.7223 20.1691 53.9059 20.1691Z" fill="#FDB4B4"/>
<path d="M47.312 18.2269C47.312 18.2269 41.6655 7.79879 46.7565 2.78052C51.8475 -2.23776 55.9343 1.06897 55.9343 1.06897L58.268 0.974659C58.268 0.974659 58.7547 2.81125 59.5395 1.81702C60.3243 0.822801 61.7425 4.44363 61.7425 4.44363C64.3748 9.18415 55.2498 10.2461 55.2498 10.2461C55.2498 10.2461 55.9087 12.3451 55.239 12.7846C54.5692 13.2242 52.7798 14.8778 52.7798 14.8778L51.1781 16.0875L50.2263 14.6372C50.2263 14.6372 49.2321 13.8524 48.7298 14.1821C48.2275 14.5118 48.9184 18.8495 48.9184 18.8495L47.312 18.2269Z" fill="#2E2E41"/>
<path d="M38.2248 94.9448L35.3286 138.146L42.4483 138.387L51.8608 95.3068L38.2248 94.9448Z" fill="#2E2E41"/>
<path d="M55.4809 94.7035L52.5847 137.904L59.7044 138.146L69.1169 95.0655L55.4809 94.7035Z" fill="#2E2E41"/>
<path d="M36.4809 104.815L40.271 57.7631L34.4587 33.2621C33.9576 29.62 36.2524 26.1738 39.7941 25.2341L45.4816 23.7252L47.9989 21.2078L53.7248 33.8523L57.3008 21.2174L60.0898 23.2457L68.3614 26.895L68.3576 26.9805L67.0308 56.5775L69.9925 104.396L69.8611 104.398L36.4809 104.815Z" fill="#E8E9EA"/>
<path d="M59.2473 137.655L61.3088 143.809C61.3088 143.809 69.374 144.906 69.4995 147.402C69.625 149.899 58.5385 148.454 52.0467 148.78C45.5549 149.107 50.9588 142.076 50.9588 142.076L51.6506 138.037L59.2473 137.655Z" fill="#2E2E41"/>
<path d="M42.4118 137.212L44.4734 143.366C44.4734 143.366 52.5386 144.463 52.6641 146.959C52.7896 149.456 41.703 148.011 35.2112 148.337C28.7194 148.663 34.1233 141.633 34.1233 141.633L34.8151 137.594L42.4118 137.212Z" fill="#2E2E41"/>
<path d="M32.3538 79.8262C32.2664 78.6128 32.4709 77.3961 32.9502 76.2779L31.4116 63.6564L37.4387 63.1L38.3503 75.9629C38.956 77.0175 39.3003 78.2019 39.3545 79.4168C39.5318 82.456 38.1083 85.01 36.1748 85.1228C34.2414 85.2357 32.5306 82.8643 32.3538 79.8262Z" fill="#FDB4B4"/>
<path d="M70.5278 81.6788C70.4536 80.4645 70.6714 79.2501 71.1629 78.1373L69.762 65.4998L75.7947 65.009L76.5661 77.8811C77.1602 78.9423 77.4916 80.1303 77.5325 81.3458C77.6767 84.3867 76.2254 86.9251 74.2909 87.0168C72.3563 87.1086 70.6714 84.7187 70.5278 81.6788Z" fill="#FDB4B4"/>
<path d="M31.3868 74.7645L31.3665 74.6556L28.2253 57.802L31.9369 30.3577C32.2681 27.9075 34.4559 26.1425 36.9231 26.3397C38.2116 26.4429 39.3676 27.0539 40.1785 28.0607C40.9893 29.0674 41.3401 30.3271 41.1663 31.608L38.3728 52.1909L40.1316 74.2063L31.3868 74.7645Z" fill="#E8E9EA"/>
<path d="M68.6662 74.369L62.3509 32.2138C62.0227 30.9777 62.2148 29.6841 62.8947 28.5849C63.5747 27.4856 64.6462 26.7361 65.9121 26.4743C68.3338 25.9734 70.7252 27.4538 71.3573 29.8439L77.4243 73.8396L68.6662 74.369Z" fill="#E8E9EA"/>
<path d="M53.9098 37.7057C54.338 37.7057 54.6852 37.3586 54.6852 36.9304C54.6852 36.5022 54.338 36.1551 53.9098 36.1551C53.4816 36.1551 53.1345 36.5022 53.1345 36.9304C53.1345 37.3586 53.4816 37.7057 53.9098 37.7057Z" fill="#D6D7D8"/>
<path d="M53.9098 43.5761C54.338 43.5761 54.6852 43.2289 54.6852 42.8007C54.6852 42.3725 54.338 42.0254 53.9098 42.0254C53.4816 42.0254 53.1345 42.3725 53.1345 42.8007C53.1345 43.2289 53.4816 43.5761 53.9098 43.5761Z" fill="#D6D7D8"/>
<path d="M53.9098 49.4464C54.338 49.4464 54.6852 49.0992 54.6852 48.671C54.6852 48.2428 54.338 47.8957 53.9098 47.8957C53.4816 47.8957 53.1345 48.2428 53.1345 48.671C53.1345 49.0992 53.4816 49.4464 53.9098 49.4464Z" fill="#D6D7D8"/>
<path d="M53.9098 55.3167C54.338 55.3167 54.6852 54.9695 54.6852 54.5413C54.6852 54.1131 54.338 53.766 53.9098 53.766C53.4816 53.766 53.1345 54.1131 53.1345 54.5413C53.1345 54.9695 53.4816 55.3167 53.9098 55.3167Z" fill="#D6D7D8"/>
<path d="M53.9098 61.187C54.338 61.187 54.6852 60.8398 54.6852 60.4116C54.6852 59.9834 54.338 59.6363 53.9098 59.6363C53.4816 59.6363 53.1345 59.9834 53.1345 60.4116C53.1345 60.8398 53.4816 61.187 53.9098 61.187Z" fill="#D6D7D8"/>
<path d="M53.9098 67.0573C54.338 67.0573 54.6852 66.7101 54.6852 66.2819C54.6852 65.8537 54.338 65.5066 53.9098 65.5066C53.4816 65.5066 53.1345 65.8537 53.1345 66.2819C53.1345 66.7101 53.4816 67.0573 53.9098 67.0573Z" fill="#D6D7D8"/>
<path d="M53.9098 72.9276C54.338 72.9276 54.6852 72.5805 54.6852 72.1523C54.6852 71.7241 54.338 71.377 53.9098 71.377C53.4816 71.377 53.1345 71.7241 53.1345 72.1523C53.1345 72.5805 53.4816 72.9276 53.9098 72.9276Z" fill="#D6D7D8"/>
<path d="M53.9098 78.7979C54.338 78.7979 54.6852 78.4508 54.6852 78.0226C54.6852 77.5944 54.338 77.2473 53.9098 77.2473C53.4816 77.2473 53.1345 77.5944 53.1345 78.0226C53.1345 78.4508 53.4816 78.7979 53.9098 78.7979Z" fill="#D6D7D8"/>
<path d="M53.9109 83.3389L39.2409 81.3839L38.9584 81.3464L31.4609 64.0589L26.9958 53.7664H38.6259L53.9109 83.3389Z" fill="#7A86FF"/>
<path d="M112.73 17.741L122.056 12.6315V27.23H111.27L112.73 17.741Z" fill="#2E2E41"/>
<path d="M124.056 20.9957L124.917 28.1627L118.713 40.5166L114.863 29.0184L116.673 20.7576L124.056 20.9957Z" fill="#FDB4B4"/>
<path d="M125.238 28.5905H114.526V41.5327H125.238V28.5905Z" fill="#7A86FF"/>
<path d="M134.074 97.1285L136.871 138.847L129.996 139.08L120.906 97.4781L134.074 97.1285Z" fill="#2E2E41"/>
<path d="M117.41 96.8955L120.207 138.614L113.331 138.847L104.242 97.2451L117.41 96.8955Z" fill="#2E2E41"/>
<path d="M141.338 105.977L141.174 105.976L97.3748 105.833L97.4141 105.678L108.675 61.0629L105.854 38.5471C105.32 34.2806 107.604 30.2479 111.537 28.5125L112.958 27.886L115.656 25.924L119.107 38.1199L124.634 25.9144L127.069 28.3489L132.56 29.8058C135.982 30.7137 138.2 34.0437 137.718 37.5515L137.712 37.5759L129.326 61.5033L141.338 105.977Z" fill="#E8E9EA"/>
<path d="M113.773 138.373L121.109 138.742L121.777 142.643C121.777 142.643 126.996 149.432 120.727 149.117C114.458 148.802 103.751 150.197 103.873 147.786C103.994 145.375 111.782 144.316 111.782 144.316L113.773 138.373Z" fill="#2E2E41"/>
<path d="M130.031 137.945L137.367 138.314L138.035 142.215C138.035 142.215 143.253 149.004 136.984 148.689C130.715 148.374 120.009 149.769 120.13 147.358C120.252 144.947 128.04 143.888 128.04 143.888L130.031 137.945Z" fill="#2E2E41"/>
<path d="M136.749 82.1009C136.578 85.0347 134.926 87.3247 133.059 87.2158C131.192 87.1068 129.817 84.6404 129.988 81.7056C130.041 80.5323 130.373 79.3886 130.958 78.3702L131.838 65.9486L137.659 66.486L136.173 78.6744C136.636 79.7542 136.833 80.9291 136.749 82.1009Z" fill="#FDB4B4"/>
<path d="M106.839 80.9853C106.606 83.9148 104.905 86.1692 103.041 86.0205C101.177 85.8718 99.8549 83.3767 100.089 80.4462C100.166 79.2743 100.523 78.1379 101.129 77.1321L102.274 64.7321L108.081 65.3933L106.336 77.5473C106.776 78.6367 106.948 79.8156 106.839 80.9853Z" fill="#FDB4B4"/>
<path d="M137.686 77.2174L129.233 76.6779L129.244 76.5512L130.932 55.4139L128.235 35.5378C128.067 34.2998 128.406 33.082 129.189 32.109C129.973 31.1359 131.09 30.5452 132.336 30.4454C134.721 30.2575 136.835 31.9609 137.156 34.3292L140.74 60.8325L140.736 60.8523L137.686 77.2174Z" fill="#E8E9EA"/>
<path d="M108.246 76.4077L99.78 75.8959L99.7986 75.7622L105.637 33.4197C106.251 31.0941 108.563 29.6637 110.903 30.1476C112.127 30.4006 113.162 31.1251 113.82 32.1877C114.477 33.2504 114.663 34.5006 114.343 35.7084L108.246 76.4077Z" fill="#E8E9EA"/>
<path d="M118.927 41.8536C119.341 41.8536 119.676 41.5184 119.676 41.1049C119.676 40.6914 119.341 40.3561 118.927 40.3561C118.514 40.3561 118.178 40.6914 118.178 41.1049C118.178 41.5184 118.514 41.8536 118.927 41.8536Z" fill="#D6D7D8"/>
<path d="M118.927 47.5225C119.341 47.5225 119.676 47.1872 119.676 46.7737C119.676 46.3602 119.341 46.025 118.927 46.025C118.514 46.025 118.178 46.3602 118.178 46.7737C118.178 47.1872 118.514 47.5225 118.927 47.5225Z" fill="#D6D7D8"/>
<path d="M118.927 53.1913C119.341 53.1913 119.676 52.8561 119.676 52.4426C119.676 52.0291 119.341 51.6939 118.927 51.6939C118.514 51.6939 118.178 52.0291 118.178 52.4426C118.178 52.8561 118.514 53.1913 118.927 53.1913Z" fill="#D6D7D8"/>
<path d="M118.927 58.8602C119.341 58.8602 119.676 58.525 119.676 58.1115C119.676 57.698 119.341 57.3628 118.927 57.3628C118.514 57.3628 118.178 57.698 118.178 58.1115C118.178 58.525 118.514 58.8602 118.927 58.8602Z" fill="#D6D7D8"/>
<path d="M118.927 64.5291C119.341 64.5291 119.676 64.1938 119.676 63.7803C119.676 63.3668 119.341 63.0316 118.927 63.0316C118.514 63.0316 118.178 63.3668 118.178 63.7803C118.178 64.1938 118.514 64.5291 118.927 64.5291Z" fill="#D6D7D8"/>
<path d="M118.927 70.1979C119.341 70.1979 119.676 69.8627 119.676 69.4492C119.676 69.0357 119.341 68.7005 118.927 68.7005C118.514 68.7005 118.178 69.0357 118.178 69.4492C118.178 69.8627 118.514 70.1979 118.927 70.1979Z" fill="#D6D7D8"/>
<path d="M118.927 75.8668C119.341 75.8668 119.676 75.5316 119.676 75.1181C119.676 74.7046 119.341 74.3694 118.927 74.3694C118.514 74.3694 118.178 74.7046 118.178 75.1181C118.178 75.5316 118.514 75.8668 118.927 75.8668Z" fill="#D6D7D8"/>
<path d="M118.927 81.5357C119.341 81.5357 119.676 81.2005 119.676 80.787C119.676 80.3735 119.341 80.0383 118.927 80.0383C118.514 80.0383 118.178 80.3735 118.178 80.787C118.178 81.2005 118.514 81.5357 118.927 81.5357Z" fill="#D6D7D8"/>
<path d="M120.064 24.6535C123.932 24.6535 127.067 21.518 127.067 17.6503C127.067 13.7826 123.932 10.6472 120.064 10.6472C116.196 10.6472 113.061 13.7826 113.061 17.6503C113.061 21.518 116.196 24.6535 120.064 24.6535Z" fill="#FDB4B4"/>
<path d="M123.734 9.475C124.07 10.1575 123.537 11.01 122.833 11.297C122.129 11.5839 121.333 11.4677 120.582 11.3482C119.831 11.2288 119.034 11.1155 118.332 11.4075C117.423 11.7854 116.911 12.7332 116.47 13.6128C115.646 15.2548 114.822 16.8968 113.998 18.5387C113.595 19.341 113.184 20.1793 113.176 21.0769C113.162 22.7244 114.468 24.041 115.172 25.531C116.028 27.3451 115.957 29.5683 114.988 31.3245C114.018 33.0806 112.174 34.3249 110.183 34.5669C109.659 34.6306 109.105 34.6237 108.633 34.3857C108.162 34.1477 107.803 33.6278 107.89 33.1073C108.061 32.0892 109.616 31.8513 109.902 30.8593C110.051 30.3415 109.787 29.7885 109.431 29.384C109.075 28.9795 108.625 28.664 108.285 28.2456C107.502 27.2809 107.45 25.7917 108.163 24.7746C108.583 24.1768 109.232 23.7327 109.503 23.0546C109.734 22.4766 109.65 21.8269 109.562 21.2107C109.45 20.4188 109.337 19.6269 109.225 18.835C109.094 17.9111 108.965 16.954 109.224 16.0576C109.818 14.0033 112.138 13.0385 113.498 11.3884C114.13 10.6217 114.555 9.6995 115.204 8.94652C116.292 7.68292 118.005 6.98586 119.667 7.13076C121.328 7.27567 122.895 8.25882 123.748 9.69175" fill="#2E2E41"/>
<path d="M122.628 9.60455C122.286 9.72691 122.159 10.1725 122.258 10.5223C122.356 10.8721 122.614 11.15 122.85 11.4262C125.52 14.5506 126.14 19.2766 124.368 22.9843C123.896 23.9705 123.268 24.8986 123.014 25.9618C122.829 26.7353 122.839 27.5839 122.409 28.2536C121.973 28.9354 121.107 29.3922 121.021 30.1974C120.966 30.7142 121.281 31.2161 121.703 31.5191C122.126 31.822 122.641 31.9607 123.149 32.0737C124.467 32.3675 125.815 32.5278 127.165 32.5516C127.606 32.5593 128.06 32.5498 128.464 32.3744C128.868 32.1989 129.213 31.8185 129.217 31.3782C129.221 31.0321 129.021 30.7128 128.996 30.3677C128.919 29.3335 130.311 28.7833 130.582 27.7823C130.76 27.1243 130.409 26.4471 130.035 25.8771C129.661 25.3072 129.234 24.7087 129.243 24.027C129.252 23.3743 129.662 22.7996 129.821 22.1666C130.041 21.2911 129.771 20.3753 129.502 19.5133C129.274 18.7804 129.046 18.0475 128.818 17.3147C128.576 16.5356 128.333 15.7566 128.091 14.9775C127.667 13.6174 127.223 12.2179 126.307 11.1271C125.391 10.0362 123.873 9.32123 122.52 9.76661" fill="#2E2E41"/>
<path d="M127.4 36.7418L126.92 36.6019C127.92 33.1731 125.764 26.7744 125.742 26.7102L126.216 26.5488C126.307 26.8173 128.444 33.1628 127.4 36.7418Z" fill="#3F3C57"/>
<path d="M127.16 40.6802C128.314 40.6802 129.249 39.7452 129.249 38.5917C129.249 37.4382 128.314 36.5032 127.16 36.5032C126.007 36.5032 125.072 37.4382 125.072 38.5917C125.072 39.7452 126.007 40.6802 127.16 40.6802Z" fill="#3F3C57"/>
<path d="M113.438 45.9857H112.171C112.033 45.9857 111.921 45.8738 111.921 45.7357C111.921 45.5977 112.033 45.4857 112.171 45.4857H113.438C113.787 45.4857 114.115 45.3497 114.361 45.1027C114.607 44.8557 114.743 44.5275 114.742 44.1786L114.727 36.377C114.727 34.6821 113.348 33.3037 111.654 33.3037C109.96 33.3037 108.581 34.6821 108.581 36.3765L108.596 43.6788C108.598 44.3912 109.179 44.9752 109.891 44.9807L110.76 44.9873C110.898 44.9884 111.01 45.1011 111.009 45.2393C111.008 45.3766 110.896 45.4873 110.759 45.4873H110.757L109.887 45.4807C108.902 45.4731 108.098 44.6652 108.096 43.6798L108.081 36.377C108.081 34.4065 109.684 32.8037 111.654 32.8037C113.624 32.8037 115.227 34.4065 115.227 36.3765L115.242 44.1776C115.243 44.6603 115.056 45.1143 114.715 45.4558C114.374 45.7975 113.92 45.9857 113.438 45.9857Z" fill="#3F3C57"/>
<path d="M110.759 46.1234C111.248 46.1234 111.645 45.7267 111.645 45.2373C111.645 44.7479 111.248 44.3512 110.759 44.3512C110.269 44.3512 109.873 44.7479 109.873 45.2373C109.873 45.7267 110.269 46.1234 110.759 46.1234Z" fill="#3F3C57"/>
<path d="M112.171 46.6218C112.66 46.6218 113.057 46.2251 113.057 45.7358C113.057 45.2464 112.66 44.8497 112.171 44.8497C111.681 44.8497 111.285 45.2464 111.285 45.7358C111.285 46.2251 111.681 46.6218 112.171 46.6218Z" fill="#3F3C57"/>
<path d="M61.018 32.9944L60.538 32.8545C61.538 29.4257 59.406 22.9279 59.3843 22.8637L59.9842 23.316C60.0758 23.5844 62.0619 29.4155 61.018 32.9944Z" fill="#3F3C57"/>
<path d="M44.1454 33.6036L44.6254 33.4637C43.6254 30.0349 45.7816 23.6362 45.8033 23.572L45.2899 23.9159C45.1984 24.1844 43.1014 30.0246 44.1454 33.6036Z" fill="#3F3C57"/>
<path d="M60.778 36.9328C61.9314 36.9328 62.8665 35.9977 62.8665 34.8443C62.8665 33.6908 61.9314 32.7558 60.778 32.7558C59.6245 32.7558 58.6895 33.6908 58.6895 34.8443C58.6895 35.9977 59.6245 36.9328 60.778 36.9328Z" fill="#3F3C57"/>
<path d="M46.3721 46.4472H45.1055C44.9673 46.4472 44.8555 46.3353 44.8555 46.1972C44.8555 46.0591 44.9673 45.9472 45.1055 45.9472H46.3721C46.7212 45.9472 47.0491 45.8112 47.2957 45.5641C47.542 45.3172 47.6775 44.9889 47.6768 44.6401L47.6614 36.8384C47.6614 35.1436 46.283 33.7652 44.5886 33.7652C42.8943 33.7652 41.5156 35.1436 41.5156 36.838L41.531 44.1403C41.5325 44.8527 42.1133 45.4367 42.8257 45.4422L43.6951 45.4488C43.833 45.4499 43.9441 45.5626 43.9431 45.7007C43.9421 45.8381 43.8303 45.9488 43.6931 45.9488H43.6912L42.8218 45.9422C41.8364 45.9346 41.033 45.1266 41.031 44.1413L41.0156 36.8384C41.0156 34.868 42.6184 33.2652 44.5886 33.2652C46.5586 33.2652 48.1614 34.868 48.1614 36.838L48.1768 44.6391C48.1777 45.1218 47.9905 45.5757 47.6494 45.9173C47.3086 46.259 46.8547 46.4472 46.3721 46.4472Z" fill="#3F3C57"/>
<path d="M43.6932 46.5849C44.1826 46.5849 44.5793 46.1882 44.5793 45.6988C44.5793 45.2095 44.1826 44.8127 43.6932 44.8127C43.2038 44.8127 42.8071 45.2095 42.8071 45.6988C42.8071 46.1882 43.2038 46.5849 43.6932 46.5849Z" fill="#3F3C57"/>
<path d="M45.1053 47.0833C45.5947 47.0833 45.9914 46.6866 45.9914 46.1972C45.9914 45.7079 45.5947 45.3112 45.1053 45.3112C44.616 45.3112 44.2192 45.7079 44.2192 46.1972C44.2192 46.6866 44.616 47.0833 45.1053 47.0833Z" fill="#3F3C57"/>
</g>
<defs>
<clipPath id="clip0_8_166">
<rect width="173.17" height="149.238" fill="white"/>
</clipPath>
</defs>
</svg>
