<svg width="21" height="21" viewBox="0 0 21 21" fill="none" xmlns="http://www.w3.org/2000/svg">
<path d="M10.5 0.897461C4.97 0.897461 0.5 5.39746 0.5 10.8975C0.5 16.3975 5 20.8975 10.5 20.8975C16 20.8975 20.5 16.3975 20.5 10.8975C20.5 5.39746 16 0.897461 10.5 0.897461ZM14.5 14.3375C14.5 14.6775 14.28 14.8975 13.94 14.8975H7.06C6.72 14.8975 6.5 14.6775 6.5 14.3375V13.8975H14.5V14.3375ZM14.5 12.8975H6.5L5.5 6.89746L8.5 8.89746L10.5 5.89746L12.5 8.89746L15.5 6.89746L14.5 12.8975Z" fill="#FFD700"/>
</svg>
