<svg width="171" height="95" viewBox="0 0 171 95" fill="none" xmlns="http://www.w3.org/2000/svg">
<g clip-path="url(#clip0_18_47)">
<path d="M87.977 94.3583C85.2895 94.7542 82.5696 94.8857 79.8564 94.7509C73.3141 94.4204 66.8801 92.5174 61.3816 88.9399C58.9437 87.3534 56.6181 85.4044 55.3562 82.7863C53.6434 79.2307 54.2424 74.7297 56.6882 71.6329C57.5804 70.5159 58.6777 69.5797 59.9213 68.8746C60.1056 68.7704 60.2938 68.6703 60.4842 68.5741C62.5563 67.5321 64.8837 67.1059 67.1906 67.3462C71.1127 67.7749 74.7324 70.1706 76.8236 73.5178C78.6865 76.5025 79.3355 80.024 79.7182 83.5535C79.7902 84.2185 79.8524 84.8855 79.9124 85.5486C79.5791 87.4695 79.055 89.3524 78.348 91.1693C78.312 91.2579 78.2825 91.3489 78.2598 91.4418C78.6605 92.3111 79.0417 93.1885 79.4036 94.0739C79.7436 94.2584 80.1245 94.3549 80.5114 94.3543H87.961L87.977 94.3583Z" fill="#F2F2F2"/>
<path d="M79.2493 94.5286C79.1999 94.5506 79.1466 94.5626 79.0925 94.5638C79.0385 94.5651 78.9847 94.5555 78.9344 94.5358C78.884 94.516 78.8381 94.4864 78.7993 94.4487C78.7606 94.411 78.7297 94.366 78.7085 94.3162C78.6764 94.2401 78.6464 94.164 78.6143 94.0879C78.3258 93.3868 78.0234 92.6924 77.7069 92.0046C73.655 83.1297 67.6112 75.3085 60.0453 69.149C60.002 69.1186 59.9676 69.077 59.9457 69.0288C59.9239 68.9805 59.9154 68.9273 59.9212 68.8746C59.9322 68.8142 59.9567 68.7571 59.9928 68.7075C60.029 68.658 60.0759 68.6172 60.13 68.5883C60.1841 68.5594 60.2441 68.5431 60.3054 68.5407C60.3667 68.5382 60.4278 68.5497 60.4841 68.5741C60.5142 68.5878 60.5425 68.6053 60.5682 68.6262C63.8052 71.2627 66.7748 74.2115 69.434 77.4299C72.0937 80.6454 74.4356 84.1109 76.4269 87.778C76.9697 88.7796 77.4852 89.7952 77.9732 90.8248C78.0695 91.0291 78.1656 91.2354 78.2597 91.4418C78.6604 92.3111 79.0416 93.1885 79.4035 94.0738C79.4096 94.0879 79.4155 94.1039 79.4216 94.1179C79.44 94.1558 79.4502 94.1972 79.4513 94.2394C79.4525 94.2815 79.4447 94.3234 79.4284 94.3622C79.412 94.4011 79.3876 94.436 79.3568 94.4647C79.3259 94.4934 79.2892 94.5152 79.2493 94.5286Z" fill="white"/>
<path d="M52.682 68.1094C56.9966 68.1094 60.4942 64.6118 60.4942 60.2972C60.4942 55.9827 56.9966 52.485 52.682 52.485C48.3675 52.485 44.8699 55.9827 44.8699 60.2972C44.8699 64.6118 48.3675 68.1094 52.682 68.1094Z" fill="#7A86FF"/>
<path d="M51.9076 63.2774C51.7319 63.2777 51.5608 63.2209 51.4201 63.1154L51.4114 63.1089L49.5755 61.7033C49.4904 61.6381 49.419 61.5569 49.3653 61.4641C49.3117 61.3714 49.2768 61.269 49.2627 61.1628C49.2486 61.0566 49.2556 60.9486 49.2832 60.8451C49.3109 60.7416 49.3586 60.6445 49.4238 60.5595C49.489 60.4744 49.5703 60.4031 49.663 60.3494C49.7558 60.2958 49.8582 60.261 49.9644 60.2469C50.0706 60.2329 50.1786 60.2399 50.2821 60.2676C50.3856 60.2953 50.4826 60.3431 50.5677 60.4083L51.7568 61.3202L54.567 57.6553C54.6322 57.5703 54.7135 57.4989 54.8062 57.4454C54.8989 57.3918 55.0013 57.357 55.1075 57.343C55.2137 57.3289 55.3216 57.336 55.4251 57.3637C55.5286 57.3913 55.6256 57.4391 55.7106 57.5043L55.6931 57.528L55.711 57.5047C55.8825 57.6365 55.9947 57.8309 56.023 58.0452C56.0513 58.2596 55.9934 58.4765 55.862 58.6483L52.5565 62.9591C52.4801 63.0584 52.3818 63.1388 52.2693 63.194C52.1567 63.2492 52.033 63.2777 51.9076 63.2774Z" fill="white"/>
<path d="M170.262 94.8396H0.738551C0.675414 94.8394 0.614928 94.8142 0.570348 94.7695C0.525768 94.7248 0.500732 94.6642 0.500732 94.6011C0.500732 94.5379 0.525768 94.4774 0.570348 94.4327C0.614928 94.3879 0.675414 94.3627 0.738551 94.3625H170.262C170.325 94.3627 170.385 94.3879 170.43 94.4327C170.474 94.4774 170.499 94.5379 170.499 94.6011C170.499 94.6642 170.474 94.7248 170.43 94.7695C170.385 94.8142 170.325 94.8394 170.262 94.8396Z" fill="#3F3D56"/>
<path d="M33.6608 28.0359C36.8624 28.0359 39.4578 25.4405 39.4578 22.2389C39.4578 19.0372 36.8624 16.4418 33.6608 16.4418C30.4592 16.4418 27.8638 19.0372 27.8638 22.2389C27.8638 25.4405 30.4592 28.0359 33.6608 28.0359Z" fill="#2F2E41"/>
<path d="M29.136 19.1132C30.0727 18.1765 30.2626 16.8475 29.56 16.1449C28.8574 15.4423 27.5285 15.6322 26.5917 16.569C25.6549 17.5057 25.4651 18.8347 26.1676 19.5373C26.8702 20.2399 28.1992 20.05 29.136 19.1132Z" fill="#2F2E41"/>
<path d="M39.7028 17.2723C40.0931 16.3586 39.4219 15.196 38.2036 14.6756C36.9853 14.1552 35.6813 14.474 35.291 15.3877C34.9006 16.3015 35.5719 17.4641 36.7902 17.9845C38.0085 18.5049 39.3125 18.186 39.7028 17.2723Z" fill="#2F2E41"/>
<path d="M49.8031 55.7075C49.9496 55.4291 50.0333 55.1219 50.0482 54.8077C50.0631 54.4935 50.009 54.1798 49.8896 53.8887C49.7701 53.5977 49.5884 53.3364 49.357 53.1232C49.1257 52.91 48.8504 52.7501 48.5506 52.6548L40.1743 34.9354L36.3428 37.6222L45.7812 54.1949C45.6545 54.7092 45.7208 55.2521 45.9676 55.7207C46.2144 56.1894 46.6246 56.5512 47.1203 56.7376C47.6161 56.9241 48.163 56.9222 48.6575 56.7323C49.1519 56.5425 49.5596 56.1778 49.8031 55.7075Z" fill="#FFB8B8"/>
<path d="M42.0953 37.8915L37.6467 39.8808C37.5201 39.9374 37.3828 39.9661 37.2441 39.9648C37.1055 39.9636 36.9687 39.9325 36.8432 39.8736C36.7177 39.8147 36.6063 39.7295 36.5166 39.6237C36.427 39.518 36.3612 39.3941 36.3238 39.2606L35.0119 34.5827C34.726 33.9334 34.7092 33.1973 34.9653 32.5357C35.2213 31.8741 35.7292 31.341 36.3776 31.0534C37.0261 30.7657 37.7621 30.7469 38.4244 31.001C39.0867 31.2552 39.6212 31.7616 39.9107 32.4093L42.515 36.4921C42.5896 36.609 42.638 36.7406 42.6571 36.8779C42.6762 37.0153 42.6655 37.1551 42.6256 37.2879C42.5858 37.4207 42.5178 37.5434 42.4263 37.6476C42.3348 37.7517 42.2219 37.8349 42.0953 37.8915Z" fill="#CCCCCC"/>
<path d="M21.5497 57.4642C21.8561 57.3931 22.1432 57.2556 22.3908 57.0615C22.6383 56.8673 22.8403 56.6213 22.9825 56.3406C23.1246 56.06 23.2036 55.7516 23.2136 55.4372C23.2237 55.1228 23.1648 54.8099 23.0409 54.5208L30.9737 36.5984L26.4357 35.4554L20.065 53.4319C19.593 53.6722 19.2255 54.0773 19.0323 54.5705C18.839 55.0636 18.8333 55.6105 19.0163 56.1075C19.1993 56.6046 19.5583 57.0172 20.0252 57.2673C20.4921 57.5173 21.0345 57.5874 21.5497 57.4642Z" fill="#FFB8B8"/>
<path d="M19.3872 89.95L21.6948 90.7902L26.0338 82.2893L22.6279 81.0494L19.3872 89.95Z" fill="#FFB8B8"/>
<path d="M25.365 94.5533L18.1126 91.9127L19.1328 89.1107L23.5832 90.731C24.3263 91.0016 24.9315 91.5563 25.2657 92.2732C25.5999 92.99 25.6356 93.8102 25.365 94.5533Z" fill="#2F2E41"/>
<path d="M24.8454 85.058C24.7038 85.0581 24.564 85.0267 24.436 84.9661L21.784 83.7099C21.5666 83.6079 21.3952 83.4281 21.3037 83.2061C21.2122 82.984 21.2071 82.7357 21.2895 82.5101L28.7739 61.7842C28.8359 61.6126 28.9453 61.462 29.0894 61.35C29.2335 61.2381 29.4064 61.1693 29.5881 61.1516C29.7697 61.134 29.9526 61.1682 30.1156 61.2503C30.2786 61.3325 30.4149 61.4591 30.5088 61.6156L34.4674 68.2133C34.5555 68.3603 34.6029 68.5281 34.6047 68.6995C34.6066 68.8709 34.5628 69.0396 34.4778 69.1885L25.6867 84.5728C25.6015 84.7206 25.4789 84.8432 25.3312 84.9284C25.1835 85.0135 25.0159 85.0583 24.8454 85.058Z" fill="#2F2E41"/>
<path d="M33.8447 28.5426C36.5618 28.5426 38.7646 26.3399 38.7646 23.6228C38.7646 20.9056 36.5618 18.7029 33.8447 18.7029C31.1275 18.7029 28.9248 20.9056 28.9248 23.6228C28.9248 26.3399 31.1275 28.5426 33.8447 28.5426Z" fill="#FFB8B8"/>
<path d="M40.8049 45.9915L32.0937 43.5959L27.4606 34.3297C27.238 33.8845 27.1329 33.3899 27.1553 32.8927C27.1777 32.3955 27.3268 31.9123 27.5884 31.4889C27.8501 31.0655 28.2156 30.7161 28.6503 30.4737C29.085 30.2314 29.5745 30.1042 30.0722 30.1042H37.0028C37.7222 30.1037 38.4164 30.3692 38.9519 30.8496C40.8111 32.5151 44.7171 37.3167 40.8426 45.9078L40.8049 45.9915Z" fill="#CCCCCC"/>
<path d="M29.8998 39.8037L25.4862 37.7377C25.3607 37.6789 25.2492 37.5938 25.1595 37.4881C25.0698 37.3823 25.004 37.2585 24.9664 37.125C24.9289 36.9915 24.9206 36.8515 24.942 36.7146C24.9635 36.5776 25.0142 36.4468 25.0908 36.3312L27.773 32.2804C28.0775 31.6396 28.6235 31.1458 29.2915 30.907C29.9595 30.6683 30.6949 30.7041 31.3365 31.0067C31.9781 31.3093 32.4735 31.854 32.7142 32.5213C32.9548 33.1886 32.921 33.9242 32.6202 34.5666L31.2332 39.2064C31.1935 39.3392 31.1255 39.462 31.0341 39.5662C30.9426 39.6704 30.8298 39.7537 30.7033 39.8104C30.5767 39.867 30.4394 39.8958 30.3008 39.8946C30.1621 39.8935 30.0254 39.8624 29.8998 39.8037Z" fill="#CCCCCC"/>
<path d="M35.2399 92.2728H37.6955L38.8639 82.8005L35.2393 82.8007L35.2399 92.2728Z" fill="#FFB8B8"/>
<path d="M42.4316 94.553L34.7135 94.5533L34.7133 91.5713L39.4495 91.5711C40.2404 91.5711 40.9989 91.8852 41.5581 92.4444C42.1174 93.0036 42.4316 93.7621 42.4316 94.553Z" fill="#2F2E41"/>
<path d="M36.167 88.6633C35.9462 88.6636 35.732 88.5878 35.5606 88.4486C35.3892 88.3094 35.271 88.1154 35.226 87.8992C34.5201 84.5733 30.8539 67.5372 27.9925 58.7621C25.0811 49.834 30.0393 45.7675 31.0628 45.043C31.1718 44.966 31.2584 44.8614 31.3138 44.74L32.0574 43.1042C32.1345 42.9353 32.2585 42.7922 32.4147 42.6918C32.5708 42.5914 32.7525 42.538 32.9382 42.538H32.9442C38.5186 42.5713 40.3926 44.3285 40.9395 45.0825C41.0202 45.1949 41.0755 45.3234 41.1016 45.4592C41.1276 45.595 41.1239 45.7348 41.0905 45.869L37.5635 60.4206C37.5416 60.5109 37.5367 60.6044 37.5489 60.6964L41.058 87.1176C41.0749 87.2446 41.0663 87.3736 41.0327 87.4973C40.9992 87.6209 40.9413 87.7366 40.8626 87.8377C40.7839 87.9388 40.6858 88.0231 40.5741 88.0859C40.4624 88.1487 40.3394 88.1886 40.2121 88.2033L36.2803 88.6568C36.2427 88.6611 36.2049 88.6633 36.167 88.6633Z" fill="#2F2E41"/>
<path d="M28.675 20.5281C29.7993 21.303 31.1337 21.7154 32.4991 21.7099C32.0121 22.0477 31.4576 22.2758 30.8739 22.3786C32.6893 22.768 34.5656 22.7785 36.3853 22.4096C36.7898 22.3447 37.18 22.2106 37.539 22.0133C37.7179 21.9134 37.8738 21.777 37.9965 21.6129C38.1192 21.4488 38.2059 21.2607 38.2512 21.0609C38.3721 20.3701 37.8338 19.7425 37.2745 19.3195C36.418 18.6818 35.4305 18.2425 34.3835 18.0332C33.3364 17.824 32.2559 17.8501 31.2201 18.1097C30.5438 18.2845 29.8663 18.5799 29.427 19.123C28.9877 19.6661 28.8576 20.5035 29.2761 21.0627L28.675 20.5281Z" fill="#2F2E41"/>
<path d="M118.985 41.8685C120.423 41.8685 121.589 40.7026 121.589 39.2645C121.589 37.8263 120.423 36.6604 118.985 36.6604C117.547 36.6604 116.381 37.8263 116.381 39.2645C116.381 40.7026 117.547 41.8685 118.985 41.8685Z" fill="#7A86FF"/>
<path d="M118.727 40.2578C118.669 40.2579 118.612 40.239 118.565 40.2038L118.562 40.2017L117.95 39.7331C117.921 39.7114 117.898 39.6844 117.88 39.6534C117.862 39.6225 117.85 39.5883 117.845 39.5529C117.84 39.5175 117.843 39.4814 117.852 39.4469C117.861 39.4123 117.877 39.3799 117.899 39.3515C117.921 39.3231 117.948 39.2993 117.979 39.2814C118.01 39.2636 118.044 39.252 118.079 39.2473C118.115 39.2427 118.151 39.245 118.185 39.2543C118.22 39.2636 118.252 39.2797 118.281 39.3015L118.677 39.6054L119.614 38.3838C119.635 38.3555 119.662 38.3317 119.693 38.3138C119.724 38.296 119.758 38.2844 119.794 38.2797C119.829 38.275 119.865 38.2774 119.9 38.2866C119.934 38.2958 119.967 38.3118 119.995 38.3335C120.052 38.3774 120.09 38.4423 120.099 38.5138C120.108 38.5852 120.089 38.6575 120.045 38.7148L118.944 40.1517C118.918 40.1848 118.885 40.2116 118.848 40.23C118.81 40.2484 118.769 40.2579 118.727 40.2578Z" fill="white"/>
<path d="M118.985 49.4803C120.423 49.4803 121.589 48.3145 121.589 46.8763C121.589 45.4381 120.423 44.2722 118.985 44.2722C117.547 44.2722 116.381 45.4381 116.381 46.8763C116.381 48.3145 117.547 49.4803 118.985 49.4803Z" fill="#7A86FF"/>
<path d="M118.727 47.8697C118.669 47.8698 118.612 47.8509 118.565 47.8157L118.562 47.8135L117.95 47.345C117.921 47.3233 117.898 47.2962 117.88 47.2653C117.862 47.2344 117.85 47.2002 117.845 47.1648C117.84 47.1293 117.843 47.0933 117.852 47.0587C117.861 47.0242 117.877 46.9918 117.899 46.9634C117.921 46.935 117.948 46.9112 117.979 46.8933C118.01 46.8754 118.044 46.8638 118.079 46.8592C118.115 46.8545 118.151 46.8569 118.185 46.8662C118.22 46.8755 118.252 46.8915 118.281 46.9134L118.677 47.2173L119.614 45.9957C119.635 45.9673 119.662 45.9436 119.693 45.9257C119.724 45.9078 119.758 45.8962 119.794 45.8916C119.829 45.8869 119.865 45.8892 119.9 45.8985C119.934 45.9077 119.967 45.9236 119.995 45.9454C120.052 45.9893 120.09 46.0542 120.099 46.1257C120.108 46.1971 120.089 46.2694 120.045 46.3267L118.944 47.7636C118.918 47.7967 118.885 47.8235 118.848 47.8419C118.81 47.8603 118.769 47.8698 118.727 47.8697Z" fill="white"/>
<path d="M120.388 58.2941C121.826 58.2941 122.992 57.1282 122.992 55.6901C122.992 54.2519 121.826 53.086 120.388 53.086C118.949 53.086 117.783 54.2519 117.783 55.6901C117.783 57.1282 118.949 58.2941 120.388 58.2941Z" fill="#7A86FF"/>
<path d="M120.129 56.6834C120.071 56.6835 120.014 56.6646 119.967 56.6294L119.964 56.6273L119.352 56.1587C119.323 56.137 119.3 56.11 119.282 56.079C119.264 56.0481 119.252 56.0139 119.247 55.9785C119.243 55.9431 119.245 55.907 119.254 55.8725C119.263 55.8379 119.279 55.8055 119.301 55.7771C119.323 55.7487 119.35 55.7249 119.381 55.707C119.412 55.6892 119.446 55.6776 119.481 55.6729C119.517 55.6683 119.553 55.6706 119.587 55.6799C119.622 55.6892 119.654 55.7053 119.683 55.7271L120.079 56.031L121.016 54.8094C121.037 54.7811 121.065 54.7573 121.095 54.7394C121.126 54.7216 121.161 54.71 121.196 54.7053C121.231 54.7006 121.267 54.703 121.302 54.7122C121.336 54.7214 121.369 54.7373 121.397 54.7591C121.454 54.803 121.492 54.8679 121.501 54.9394C121.511 55.0108 121.491 55.0831 121.447 55.1404L120.346 56.5773C120.32 56.6104 120.287 56.6372 120.25 56.6556C120.212 56.674 120.171 56.6835 120.129 56.6834Z" fill="white"/>
<path d="M145.498 77.4318C145.471 77.4318 145.454 77.4311 145.448 77.4308L142.215 77.4311V76.9544H145.46C145.535 76.9571 147.067 77.0004 148.48 75.2869C150.584 72.7331 152.312 66.4111 148.594 50.7959C143.595 29.7991 147.765 11.2495 149.789 4.24894C149.889 3.90259 149.907 3.53779 149.842 3.18336C149.776 2.82893 149.629 2.49458 149.412 2.20673C149.195 1.91888 148.914 1.68542 148.592 1.52479C148.269 1.36416 147.913 1.28076 147.553 1.28119H99.2709C98.9039 1.28168 98.5421 1.36872 98.2149 1.53523C97.8878 1.70175 97.6045 1.94306 97.3881 2.23956C96.5304 3.4194 95.3534 5.68597 94.6168 9.78432L94.1477 9.70006C94.9002 5.51268 96.1155 3.17942 97.0026 1.95932C97.2632 1.60204 97.6045 1.31128 97.9986 1.11063C98.3928 0.909978 98.8287 0.805098 99.2709 0.804506H147.553C147.987 0.804088 148.416 0.904677 148.805 1.09833C149.193 1.29198 149.532 1.57338 149.793 1.9203C150.054 2.26723 150.232 2.67017 150.31 3.09729C150.389 3.52442 150.368 3.96402 150.247 4.38137C148.233 11.3456 144.085 29.7989 149.058 50.6856C152.828 66.5204 151.016 72.9793 148.832 75.6093C147.391 77.344 145.803 77.4318 145.498 77.4318Z" fill="#E6E6E6"/>
<path d="M136.798 86.1313C136.771 86.1313 136.754 86.1306 136.748 86.1302L133.516 86.1306V85.6539H136.76C136.836 85.6562 138.368 85.6999 139.78 83.9863C141.885 81.4325 143.613 75.1106 139.895 59.4954C134.896 38.4985 139.065 19.949 141.09 12.9484C141.19 12.6021 141.208 12.2373 141.142 11.8828C141.077 11.5284 140.93 11.194 140.713 10.9062C140.496 10.6183 140.215 10.3849 139.892 10.2243C139.57 10.0636 139.214 9.98023 138.854 9.98066H90.5715C90.2044 9.98115 89.8426 10.0682 89.5155 10.2347C89.1884 10.4012 88.9051 10.6425 88.6887 10.939C87.831 12.1189 86.6539 14.3854 85.9174 18.4838L85.4482 18.3995C86.2008 14.2121 87.4161 11.8789 88.3031 10.6588C88.5638 10.3015 88.9051 10.0107 89.2992 9.81009C89.6933 9.60944 90.1292 9.50456 90.5715 9.50397H138.854C139.288 9.50355 139.716 9.60414 140.105 9.79779C140.494 9.99144 140.832 10.2728 141.094 10.6198C141.355 10.9667 141.532 11.3696 141.611 11.7968C141.69 12.2239 141.668 12.6635 141.548 13.0808C139.534 20.0451 135.386 38.4984 140.359 59.385C144.129 75.2198 142.316 81.6788 140.132 84.3088C138.691 86.0434 137.104 86.1313 136.798 86.1313Z" fill="#CCCCCC"/>
<path d="M131.659 68.0854C126.685 47.1988 130.834 28.744 132.849 21.7812C132.969 21.3638 132.99 20.9243 132.911 20.4972C132.832 20.0702 132.655 19.6674 132.394 19.3204C132.133 18.9735 131.794 18.6921 131.406 18.4983C131.017 18.3045 130.589 18.2036 130.155 18.2036H81.8714C81.4293 18.204 80.9936 18.3088 80.5996 18.5092C80.2056 18.7097 79.8644 19.0003 79.6038 19.3574C77.6548 22.0376 73.6105 30.9254 78.1276 55.5178C80.5433 68.6743 80.5073 77.6442 79.718 83.5535C79.2753 86.8806 78.5923 89.2363 77.9732 90.8248L77.9072 90.9931C77.7768 91.3145 77.7089 91.6578 77.7069 92.0046C77.7023 92.3963 77.7809 92.7844 77.9373 93.1435C78.0937 93.5026 78.3244 93.8245 78.6143 94.0879C78.8033 94.265 79.0172 94.4135 79.2492 94.5286C79.4419 94.6268 79.6457 94.7015 79.8563 94.7509C80.0706 94.8033 80.2906 94.8295 80.5113 94.829H128.049C128.055 94.829 128.071 94.831 128.099 94.831C128.404 94.831 129.992 94.7429 131.433 93.0082C133.616 90.3781 135.429 83.92 131.659 68.0854ZM131.08 92.6857C129.668 94.4004 128.135 94.3563 128.061 94.3543H80.5113C80.1306 94.3542 79.7557 94.2608 79.4194 94.0824C79.0832 93.904 78.7957 93.6459 78.5822 93.3307C78.3944 93.0582 78.2683 92.748 78.2126 92.4218C78.1569 92.0956 78.173 91.7611 78.2597 91.4417C78.2824 91.3489 78.3119 91.2579 78.3478 91.1693C79.0549 89.3524 79.579 87.4695 79.9123 85.5486C81.0421 79.389 81.2524 69.8842 78.5963 55.4316C74.1133 31.0216 78.0775 22.2679 79.9884 19.6378C80.2052 19.3418 80.4886 19.1008 80.8157 18.9345C81.1428 18.7682 81.5044 18.6811 81.8714 18.6804H130.155C130.515 18.6801 130.87 18.7636 131.193 18.9242C131.515 19.0848 131.796 19.3182 132.013 19.6059C132.229 19.8936 132.376 20.2277 132.442 20.5819C132.507 20.9362 132.49 21.3008 132.39 21.647C130.365 28.6479 126.196 47.1988 131.196 68.1955C134.914 83.8099 133.185 90.1317 131.08 92.6857Z" fill="#3F3D56"/>
<path d="M108.721 40.9471H83.8452C83.3395 40.9471 82.8545 40.7462 82.4969 40.3887C82.1394 40.0311 81.9385 39.5461 81.9385 39.0404C81.9385 38.5347 82.1394 38.0497 82.4969 37.6921C82.8545 37.3346 83.3395 37.1337 83.8452 37.1337H108.721C109.227 37.1337 109.712 37.3346 110.069 37.6921C110.427 38.0497 110.628 38.5347 110.628 39.0404C110.628 39.5461 110.427 40.0311 110.069 40.3887C109.712 40.7462 109.227 40.9471 108.721 40.9471Z" fill="#CCCCCC"/>
<path d="M108.721 49.16H83.8452C83.3395 49.16 82.8545 48.9591 82.4969 48.6015C82.1394 48.2439 81.9385 47.7589 81.9385 47.2532C81.9385 46.7475 82.1394 46.2625 82.4969 45.905C82.8545 45.5474 83.3395 45.3465 83.8452 45.3465H108.721C109.227 45.3465 109.712 45.5474 110.069 45.905C110.427 46.2625 110.628 46.7475 110.628 47.2532C110.628 47.7589 110.427 48.2439 110.069 48.6015C109.712 48.9591 109.227 49.16 108.721 49.16Z" fill="#CCCCCC"/>
<path d="M110.724 57.573H85.8484C85.3427 57.573 84.8577 57.3722 84.5001 57.0146C84.1425 56.657 83.9417 56.172 83.9417 55.6663C83.9417 55.1606 84.1425 54.6756 84.5001 54.3181C84.8577 53.9605 85.3427 53.7596 85.8484 53.7596H110.724C111.23 53.7596 111.715 53.9605 112.073 54.3181C112.43 54.6756 112.631 55.1606 112.631 55.6663C112.631 56.172 112.43 56.657 112.073 57.0146C111.715 57.3722 111.23 57.573 110.724 57.573Z" fill="#CCCCCC"/>
<path d="M112.126 66.3868H87.2505C86.7448 66.3868 86.2598 66.1859 85.9022 65.8283C85.5446 65.4707 85.3438 64.9857 85.3438 64.48C85.3438 63.9743 85.5446 63.4893 85.9022 63.1318C86.2598 62.7742 86.7448 62.5733 87.2505 62.5733H112.126C112.632 62.5733 113.117 62.7742 113.475 63.1318C113.832 63.4893 114.033 63.9743 114.033 64.48C114.033 64.9857 113.832 65.4707 113.475 65.8283C113.117 66.1859 112.632 66.3868 112.126 66.3868Z" fill="#CCCCCC"/>
<path d="M112.137 26.1421H94.2615C94.0109 26.1423 93.7628 26.0932 93.5312 25.9975C93.2996 25.9018 93.0892 25.7614 92.9119 25.5843C92.7347 25.4072 92.5941 25.1969 92.4981 24.9655C92.4022 24.734 92.3528 24.4859 92.3528 24.2353C92.3528 23.9848 92.4022 23.7367 92.4981 23.5052C92.5941 23.2738 92.7347 23.0635 92.9119 22.8864C93.0892 22.7093 93.2996 22.5689 93.5312 22.4732C93.7628 22.3775 94.0109 22.3284 94.2615 22.3286H112.137C112.643 22.3286 113.128 22.5295 113.485 22.8871C113.843 23.2447 114.044 23.7296 114.044 24.2353C114.044 24.741 113.843 25.226 113.485 25.5836C113.128 25.9412 112.643 26.1421 112.137 26.1421Z" fill="#7A86FF"/>
<path d="M121.99 67.0841C123.428 67.0841 124.594 65.9182 124.594 64.48C124.594 63.0419 123.428 61.876 121.99 61.876C120.552 61.876 119.386 63.0419 119.386 64.48C119.386 65.9182 120.552 67.0841 121.99 67.0841Z" fill="#CCCCCC"/>
<path d="M113.328 75.0002H88.4524C87.9467 75.0002 87.4617 74.7993 87.1041 74.4418C86.7465 74.0842 86.5457 73.5992 86.5457 73.0935C86.5457 72.5878 86.7465 72.1028 87.1041 71.7452C87.4617 71.3876 87.9467 71.1868 88.4524 71.1868H113.328C113.834 71.1868 114.319 71.3876 114.677 71.7452C115.034 72.1028 115.235 72.5878 115.235 73.0935C115.235 73.5992 115.034 74.0842 114.677 74.4418C114.319 74.7993 113.834 75.0002 113.328 75.0002Z" fill="#CCCCCC"/>
<path d="M123.192 75.6975C124.63 75.6975 125.796 74.5316 125.796 73.0934C125.796 71.6553 124.63 70.4894 123.192 70.4894C121.754 70.4894 120.588 71.6553 120.588 73.0934C120.588 74.5316 121.754 75.6975 123.192 75.6975Z" fill="#CCCCCC"/>
</g>
<defs>
<clipPath id="clip0_18_47">
<rect width="170" height="94.0351" fill="white" transform="translate(0.5 0.804504)"/>
</clipPath>
</defs>
</svg>
