<svg width="163" height="130" viewBox="0 0 163 130" fill="none" xmlns="http://www.w3.org/2000/svg">
<g clip-path="url(#clip0_18_28)">
<path d="M121.449 128.347C119.201 126.448 117.835 123.447 118.193 120.525C118.551 117.604 120.769 114.918 123.647 114.298C126.524 113.677 129.803 115.395 130.677 118.205C131.158 112.787 131.713 107.141 134.593 102.527C137.202 98.3483 141.72 95.3586 146.617 94.8237C151.513 94.2888 156.669 96.309 159.723 100.174C162.776 104.039 163.524 109.657 161.385 114.094C159.81 117.363 156.907 119.796 153.865 121.775C144.038 128.116 132.25 130.694 120.672 129.036" fill="#F2F2F2"/>
<path d="M154.881 96.4209C150.84 99.7118 147.134 103.392 143.815 107.409C138.62 113.675 134.417 120.699 131.351 128.238C131.126 128.788 132.019 129.027 132.241 128.483C137.258 116.231 145.266 105.432 155.534 97.074C155.995 96.6985 155.338 96.0486 154.881 96.4209Z" fill="white"/>
<path d="M40 129.647H27.25C26.8192 129.647 26.4061 129.476 26.1015 129.171C25.7969 128.866 25.6255 128.453 25.625 128.022V101.522C25.6255 101.092 25.7969 100.679 26.1015 100.374C26.4061 100.069 26.8192 99.898 27.25 99.8975H40C40.4308 99.898 40.8439 100.069 41.1485 100.374C41.4531 100.679 41.6245 101.092 41.625 101.522V128.022C41.6245 128.453 41.4531 128.866 41.1485 129.171C40.8439 129.476 40.4308 129.647 40 129.647Z" fill="#7A86FF"/>
<path d="M70.25 129.898H57.5C57.0029 129.897 56.5263 129.699 56.1748 129.348C55.8233 128.996 55.6256 128.52 55.625 128.023V76.5225C55.6256 76.0254 55.8233 75.5488 56.1748 75.1973C56.5263 74.8458 57.0029 74.6481 57.5 74.6475H70.25C70.7471 74.6481 71.2237 74.8458 71.5752 75.1973C71.9267 75.5488 72.1244 76.0254 72.125 76.5225V128.023C72.1244 128.52 71.9267 128.996 71.5752 129.348C71.2237 129.699 70.7471 129.897 70.25 129.898ZM57.5 75.1475C57.1355 75.1479 56.786 75.2929 56.5282 75.5507C56.2704 75.8085 56.1254 76.158 56.125 76.5225V128.023C56.1254 128.387 56.2704 128.737 56.5282 128.994C56.786 129.252 57.1355 129.397 57.5 129.398H70.25C70.6145 129.397 70.964 129.252 71.2218 128.994C71.4796 128.737 71.6246 128.387 71.625 128.023V76.5225C71.6246 76.158 71.4796 75.8085 71.2218 75.5507C70.964 75.2929 70.6145 75.1479 70.25 75.1475H57.5Z" fill="#3F3D56"/>
<path d="M100.5 129.898H87.75C87.2529 129.897 86.7763 129.699 86.4248 129.348C86.0733 128.996 85.8756 128.52 85.875 128.023V43.7725C85.8756 43.2754 86.0733 42.7988 86.4248 42.4473C86.7763 42.0958 87.2529 41.8981 87.75 41.8975H100.5C100.997 41.8981 101.474 42.0958 101.825 42.4473C102.177 42.7988 102.374 43.2754 102.375 43.7725V128.023C102.374 128.52 102.177 128.996 101.825 129.348C101.474 129.699 100.997 129.897 100.5 129.898ZM87.75 42.3975C87.3855 42.3979 87.036 42.5429 86.7782 42.8007C86.5204 43.0585 86.3754 43.408 86.375 43.7725V128.023C86.3754 128.387 86.5204 128.737 86.7782 128.994C87.036 129.252 87.3855 129.397 87.75 129.398H100.5C100.865 129.397 101.214 129.252 101.472 128.994C101.73 128.737 101.875 128.387 101.875 128.023V43.7725C101.875 43.408 101.73 43.0585 101.472 42.8007C101.214 42.5429 100.865 42.3979 100.5 42.3975H87.75Z" fill="#3F3D56"/>
<path d="M131.032 129.772H118.282C117.851 129.772 117.438 129.601 117.134 129.296C116.829 128.991 116.658 128.578 116.657 128.147V9.39752C116.658 8.9667 116.829 8.55366 117.134 8.24902C117.438 7.94438 117.851 7.77302 118.282 7.77252H131.032C131.463 7.77302 131.876 7.94438 132.181 8.24902C132.485 8.55366 132.657 8.9667 132.657 9.39752V128.147C132.657 128.578 132.485 128.991 132.181 129.296C131.876 129.601 131.463 129.772 131.032 129.772Z" fill="#7A86FF"/>
<path d="M51.7353 56.4292C51.7815 56.0646 51.7473 55.6943 51.6349 55.3443C51.5226 54.9944 51.3349 54.6733 51.0851 54.4038C50.8352 54.1343 50.5293 53.9228 50.1889 53.7842C49.8485 53.6457 49.4819 53.5835 49.1148 53.602L44.6707 45.4497L43.6707 48.9497L46.7154 56.4211C46.7873 57.0357 47.0822 57.6025 47.5442 58.0142C48.0061 58.4259 48.603 58.6538 49.2218 58.6548C49.8405 58.6558 50.4382 58.4298 50.9014 58.0196C51.3647 57.6094 51.6614 57.0435 51.7353 56.4292Z" fill="#A0616A"/>
<path d="M17.4946 88.6178L19.9699 90.4251L28.1186 81.7368L24.4651 79.0696L17.4946 88.6178Z" fill="#A0616A"/>
<path d="M23.0659 96.209L15.2859 90.5292L17.4804 87.5233L22.2545 91.0086C23.0517 91.5906 23.5851 92.4655 23.7372 93.4407C23.8894 94.416 23.6479 95.4118 23.0659 96.209Z" fill="#2F2E41"/>
<path d="M30.5908 98.1838L33.6558 98.1836L35.1138 86.3616L30.5903 86.3618L30.5908 98.1838Z" fill="#A0616A"/>
<path d="M39.5669 101.029L29.9342 101.03L29.934 97.3081L35.845 97.3079C36.8321 97.3078 37.7787 97.6999 38.4767 98.3978C39.1747 99.0957 39.5668 100.042 39.5669 101.029Z" fill="#2F2E41"/>
<path d="M39.7957 52.0747C39.7957 52.0747 41.2957 66.5747 37.5457 76.5747L34.7957 95.5747H30.0457L30.5457 73.0747L28.7957 53.0747C28.7957 53.0747 32.2957 44.0747 39.7957 52.0747Z" fill="#2F2E41"/>
<path d="M23.5459 53.0746L28.5459 70.3246L18.7959 85.8246L23.6709 89.9496L34.7959 72.5746L31.5459 51.3246L23.5459 53.0746Z" fill="#2F2E41"/>
<path d="M36.2968 14.3931C39.6879 14.3931 42.437 11.644 42.437 8.25287C42.437 4.8617 39.6879 2.11261 36.2968 2.11261C32.9056 2.11261 30.1565 4.8617 30.1565 8.25287C30.1565 11.644 32.9056 14.3931 36.2968 14.3931Z" fill="#A0616A"/>
<path d="M31.1708 16.6997C31.1708 16.6997 34.9208 14.1997 39.1708 19.6997L40.2958 54.3247C40.2958 54.3247 37.0458 49.8247 30.2958 54.0747C23.5458 58.3247 22.0458 53.5747 22.0458 53.5747C22.0458 53.5747 17.2958 17.8247 31.1708 16.6997Z" fill="#CCCCCC"/>
<path d="M38.8683 19.6124C39.9468 19.6707 40.9657 20.1258 41.7289 20.8901C42.4921 21.6543 42.9457 22.6739 43.0025 23.7525L43.7958 38.8247L49.0458 53.0747L46.0458 55.5747L36.2958 38.5747L34.2996 24.6014C34.2081 23.961 34.2597 23.3082 34.4508 22.6901C34.6419 22.072 34.9676 21.5039 35.4045 21.0268C35.8414 20.5497 36.3787 20.1754 36.9776 19.9308C37.5766 19.6862 38.2223 19.5775 38.8683 19.6124Z" fill="#CCCCCC"/>
<path d="M31.785 12.8587C32.7888 13.928 34.6531 13.354 34.7839 11.8932C34.7941 11.7798 34.7934 11.6656 34.7816 11.5524C34.7141 10.9053 34.3403 10.3178 34.4298 9.63463C34.4501 9.46459 34.5134 9.30254 34.6139 9.16384C35.4138 8.09269 37.2915 9.64294 38.0464 8.67326C38.5094 8.07867 37.9652 7.14252 38.3204 6.47797C38.7893 5.60087 40.178 6.03355 41.0488 5.55321C42.0178 5.01876 41.9598 3.53214 41.322 2.62791C40.5441 1.52516 39.1803 0.936717 37.8335 0.851905C36.4867 0.767092 35.1492 1.13118 33.8918 1.62119C32.4631 2.17794 31.0464 2.94739 30.1673 4.2036C29.0981 5.73128 28.9952 7.78509 29.5299 9.57142C29.8552 10.6581 30.9653 11.9855 31.785 12.8587Z" fill="#2F2E41"/>
<path d="M162.412 129.791H0.58831C0.509512 129.791 0.434018 129.76 0.37838 129.704C0.322742 129.648 0.291504 129.573 0.291504 129.494C0.291504 129.415 0.322742 129.339 0.37838 129.284C0.434018 129.228 0.509512 129.196 0.58831 129.196H162.412C162.491 129.196 162.566 129.228 162.622 129.284C162.677 129.339 162.709 129.415 162.709 129.494C162.709 129.573 162.677 129.648 162.622 129.704C162.566 129.76 162.491 129.791 162.412 129.791Z" fill="#3F3D56"/>
</g>
<defs>
<clipPath id="clip0_18_28">
<rect width="162.419" height="129.058" fill="white" transform="translate(0.290527 0.8396)"/>
</clipPath>
</defs>
</svg>
